<svg width="57" height="34" viewBox="0 0 57 34" fill="none" xmlns="http://www.w3.org/2000/svg">
<path d="M2.63125 10.4578C1.68341 13.2698 1.65708 14.2624 1.76239 14.4072C1.81505 14.6178 1.94406 15.1418 2.03885 15.5525C2.13363 15.9633 3.13151 16.9611 3.6186 17.4087C4.2505 18.325 5.48797 18.949 6.02771 19.1464C6.97556 19.336 7.02822 18.1723 6.93607 17.5667C7.09404 16.5241 6.76493 14.4994 6.58062 13.6173C5.98032 12.1324 5.67227 7.86441 5.59328 5.91605C5.4669 4.77864 5.98822 3.07251 6.26467 2.36162C6.58062 1.38218 7.44949 0.400102 7.84442 0.0314938C8.16037 -0.094886 8.37101 0.189469 8.43683 0.347443L8.16037 0.781874C7.43369 1.79291 7.17303 5.17884 7.13354 6.74542L7.84442 10.4578L8.95025 16.7373C9.04503 18.0327 9.80594 19.0148 10.1746 19.3439L13.2946 20.6077C13.9896 20.3234 14.4004 18.7778 14.5189 18.0406L15.5852 10.7738L16.2566 6.74542L16.849 4.77074L17.4019 3.58593C17.8442 3.20679 17.9811 3.7439 17.9943 4.05985L17.5994 5.91605L16.849 11.8006L16.6515 17.5667C16.5251 18.4198 16.8358 21.029 17.007 22.227L17.5599 22.6614C18.2234 22.693 20.4429 26.308 21.4698 28.1115C21.5013 28.4907 21.7989 28.5854 21.9437 28.5854L22.8125 25.1495C22.8125 24.6124 23.2075 24.6887 23.4049 24.794C23.7209 24.9836 23.7209 26.2421 23.6814 26.8477L22.8125 31.35L23.01 33.8381C22.1569 34.2172 20.6799 33.6801 20.048 33.3642C20.2691 30.805 19.008 28.9804 18.3497 28.388C15.0639 23.8383 8.29202 21.5424 5.31683 20.9632C2.9788 19.9521 0.946189 17.1191 0.222137 15.829C-0.536142 13.9965 0.827707 11.4847 1.60442 10.4578C1.95196 10.0155 2.43379 10.2735 2.63125 10.4578Z" fill="url(#paint0_linear_608_1210)"/>
<path d="M54.3067 10.4893C55.2546 13.3013 55.2809 14.2939 55.1756 14.4387C55.1229 14.6493 54.9939 15.1733 54.8991 15.584C54.8044 15.9947 53.8065 16.9926 53.3194 17.4402C52.6875 18.3565 51.45 18.9805 50.9103 19.1779C49.9624 19.3675 49.9098 18.2038 50.0019 17.5982C49.8439 16.5556 50.1731 14.5308 50.3574 13.6488C50.9577 12.1639 51.2657 7.89591 51.3447 5.94755C51.4711 4.81013 50.9498 3.104 50.6733 2.39312C50.3574 1.41367 49.4885 0.431596 49.0936 0.062988C48.7776 -0.0633919 48.567 0.220963 48.5012 0.378938L48.7776 0.813368C49.5043 1.82441 49.765 5.21033 49.8045 6.77692L49.0936 10.4893L47.9877 16.7688C47.893 18.0642 47.132 19.0463 46.7634 19.3754L43.6434 20.6392C42.9483 20.3549 42.5376 18.8093 42.4191 18.0721L41.3528 10.8053L40.6814 6.77692L40.089 4.80223L39.5361 3.61742C39.0938 3.23828 38.9568 3.7754 38.9437 4.09134L39.3386 5.94755L40.089 11.8321L40.2865 17.5982C40.4128 18.4513 40.1022 21.0605 39.931 22.2584L39.3781 22.6929C38.7146 22.7245 36.4951 26.3395 35.4682 28.143C35.4366 28.5222 35.1391 28.6169 34.9943 28.6169L34.1255 25.181C34.1255 24.6439 33.7305 24.7202 33.533 24.8255C33.2171 25.0151 33.2171 26.2736 33.2566 26.8792L34.1255 31.3815L33.928 33.8696C34.781 34.2487 36.2581 33.7116 36.89 33.3957C36.6688 30.8365 37.93 29.0119 38.5882 28.4195C41.8741 23.8698 48.646 21.5739 51.6212 20.9946C53.9592 19.9836 55.9918 17.1506 56.7159 15.8605C57.4741 14.028 56.1103 11.5162 55.3336 10.4893C54.986 10.047 54.5042 10.305 54.3067 10.4893Z" fill="url(#paint1_linear_608_1210)"/>
<defs>
<linearGradient id="paint0_linear_608_1210" x1="11.8497" y1="0" x2="11.8497" y2="44.9583" gradientUnits="userSpaceOnUse">
<stop stop-color="#00AAFF"/>
<stop offset="1" stop-color="#00AAFF" stop-opacity="0"/>
</linearGradient>
<linearGradient id="paint1_linear_608_1210" x1="45.0883" y1="0.0314941" x2="45.0883" y2="44.9898" gradientUnits="userSpaceOnUse">
<stop stop-color="#00AAFF"/>
<stop offset="1" stop-color="#00AAFF" stop-opacity="0"/>
</linearGradient>
</defs>
</svg>
