<svg xmlns="http://www.w3.org/2000/svg" xmlns:xlink="http://www.w3.org/1999/xlink" width="512" zoomAndPan="magnify" viewBox="0 0 384 383.999986" height="512" preserveAspectRatio="xMidYMid meet" version="1.0"><defs><clipPath id="8ac5ee4fc9"><path d="M 90.757812 107 L 369.007812 107 L 369.007812 353.414062 L 90.757812 353.414062 Z M 90.757812 107 " clip-rule="nonzero"/></clipPath><clipPath id="0cf99e30ce"><path d="M 90.757812 30.914062 L 356 30.914062 L 356 199 L 90.757812 199 Z M 90.757812 30.914062 " clip-rule="nonzero"/></clipPath><clipPath id="8f6563466e"><path d="M 14.960938 114 L 80.210938 114 L 80.210938 352.863281 L 14.960938 352.863281 Z M 14.960938 114 " clip-rule="nonzero"/></clipPath></defs><g clip-path="url(#8ac5ee4fc9)"><path fill="#026496" d="M 360.15625 107.554688 C 229.921875 106.136719 130.40625 153.503906 90.757812 296.027344 L 90.757812 353.058594 L 160.496094 353.058594 L 160.496094 265.097656 L 237.695312 265.097656 L 288.476562 353.058594 L 369.03125 353.058594 L 309.0625 249.1875 C 343.878906 228.8125 367.351562 191 367.351562 147.992188 C 367.351562 133.8125 364.832031 120.210938 360.15625 107.554688 Z M 360.15625 107.554688 " fill-opacity="1" fill-rule="evenodd"/></g><g clip-path="url(#0cf99e30ce)"><path fill="#026496" d="M 90.757812 198.351562 C 154.878906 113.542969 248.09375 90.226562 355.902344 97.628906 C 337 58.296875 296.667969 30.9375 250.296875 30.9375 L 90.757812 30.9375 L 90.757812 124.359375 C 148.996094 86.96875 218.527344 71.371094 301.867188 82.507812 C 214.851562 78.042969 145.375 105.140625 90.757812 158.914062 Z M 90.757812 198.351562 " fill-opacity="1" fill-rule="evenodd"/></g><g clip-path="url(#8f6563466e)"><path fill="#026496" d="M 47.738281 179.730469 C 65.78125 179.730469 80.457031 165.054688 80.457031 147.015625 C 80.457031 128.976562 65.78125 114.300781 47.738281 114.300781 C 29.699219 114.300781 15.019531 128.976562 15.019531 147.015625 C 15.019531 165.054688 29.699219 179.730469 47.738281 179.730469 Z M 14.960938 234.835938 L 14.960938 352.398438 L 80.519531 352.398438 L 80.519531 176.628906 L 14.960938 234.835938 " fill-opacity="1" fill-rule="nonzero"/></g></svg>