<svg xmlns="http://www.w3.org/2000/svg" xmlns:xlink="http://www.w3.org/1999/xlink" width="120" zoomAndPan="magnify" viewBox="0 0 90 45.749998" height="61" preserveAspectRatio="xMidYMid meet" version="1.0"><defs><g/><clipPath id="c59b130534"><path d="M 0.246094 8 L 17 8 L 17 42 L 0.246094 42 Z M 0.246094 8 " clip-rule="nonzero"/></clipPath><clipPath id="7d7193b859"><path d="M 81 25 L 89.753906 25 L 89.753906 43 L 81 43 Z M 81 25 " clip-rule="nonzero"/></clipPath></defs><g clip-path="url(#c59b130534)"><g fill="#ffffff" fill-opacity="1"><g transform="translate(0.250394, 31.412275)"><g><path d="M 12.390625 -22.1875 C 13.347656 -21.9375 14.125 -21.363281 14.71875 -20.46875 C 15.363281 -19.445312 15.742188 -18.410156 15.859375 -17.359375 C 15.890625 -17.023438 15.738281 -16.863281 15.40625 -16.875 C 15.070312 -16.882812 14.847656 -17.0625 14.734375 -17.40625 C 14.679688 -17.582031 14.632812 -17.753906 14.59375 -17.921875 C 14.570312 -18.035156 14.546875 -18.148438 14.515625 -18.265625 C 14.316406 -18.992188 13.984375 -19.679688 13.515625 -20.328125 C 12.910156 -21.160156 12.160156 -21.597656 11.265625 -21.640625 C 10.640625 -21.648438 10.066406 -21.539062 9.546875 -21.3125 C 8.160156 -20.71875 6.957031 -19.820312 5.9375 -18.625 C 4.925781 -17.4375 4.082031 -16.046875 3.40625 -14.453125 C 2.738281 -12.867188 2.238281 -11.1875 1.90625 -9.40625 C 1.570312 -7.625 1.378906 -5.847656 1.328125 -4.078125 C 1.273438 -2.316406 1.359375 -0.660156 1.578125 0.890625 C 1.804688 2.441406 2.144531 3.78125 2.59375 4.90625 C 3.050781 6.03125 3.59375 6.890625 4.21875 7.484375 C 4.851562 8.085938 5.617188 8.285156 6.515625 8.078125 C 7.421875 7.878906 8.53125 6.75 9.84375 4.6875 C 11.164062 2.625 12.335938 -1.019531 13.359375 -6.25 C 13.410156 -6.4375 13.398438 -6.5625 13.328125 -6.625 C 13.253906 -6.695312 13.109375 -6.734375 12.890625 -6.734375 C 12.878906 -6.734375 12.863281 -6.734375 12.84375 -6.734375 C 12.800781 -6.734375 12.757812 -6.726562 12.71875 -6.71875 C 12.320312 -6.695312 11.925781 -6.671875 11.53125 -6.640625 C 10.476562 -6.566406 9.425781 -6.492188 8.375 -6.421875 C 8.082031 -6.410156 7.785156 -6.410156 7.484375 -6.421875 C 7.472656 -6.421875 7.46875 -6.421875 7.46875 -6.421875 C 7.394531 -6.429688 7.328125 -6.457031 7.265625 -6.5 C 7.210938 -6.539062 7.171875 -6.59375 7.140625 -6.65625 C 7.109375 -6.71875 7.097656 -6.773438 7.109375 -6.828125 C 7.128906 -6.890625 7.171875 -6.929688 7.234375 -6.953125 C 7.285156 -6.960938 7.335938 -6.976562 7.390625 -7 C 7.585938 -7.070312 7.78125 -7.117188 7.96875 -7.140625 C 9 -7.253906 9.882812 -7.332031 10.625 -7.375 C 11.375 -7.425781 12.367188 -7.546875 13.609375 -7.734375 C 14.859375 -7.929688 15.457031 -7.378906 15.40625 -6.078125 C 15.351562 -4.785156 15.390625 -3.378906 15.515625 -1.859375 C 15.597656 -1.015625 15.6875 -0.175781 15.78125 0.65625 C 15.894531 1.5 16.015625 2.351562 16.140625 3.21875 C 16.203125 3.570312 16.265625 3.925781 16.328125 4.28125 C 16.335938 4.363281 16.351562 4.441406 16.375 4.515625 C 16.382812 4.597656 16.398438 4.679688 16.421875 4.765625 C 16.472656 5.035156 16.378906 5.175781 16.140625 5.1875 C 15.804688 5.21875 15.578125 5.101562 15.453125 4.84375 C 15.378906 4.6875 15.316406 4.519531 15.265625 4.34375 C 15.253906 4.320312 15.242188 4.296875 15.234375 4.265625 C 14.804688 3.046875 14.546875 1.835938 14.453125 0.640625 C 14.367188 -0.148438 14.289062 -0.945312 14.21875 -1.75 C 14.175781 -2.144531 14.132812 -2.539062 14.09375 -2.9375 C 13.976562 -2.832031 13.894531 -2.71875 13.84375 -2.59375 C 13.800781 -2.476562 13.773438 -2.359375 13.765625 -2.234375 C 13.753906 -2.171875 13.738281 -2.109375 13.71875 -2.046875 C 12.84375 0.660156 11.863281 2.976562 10.78125 4.90625 C 9.695312 6.832031 8.539062 8.101562 7.3125 8.71875 C 6.09375 9.332031 5.035156 9.398438 4.140625 8.921875 C 3.242188 8.441406 2.472656 7.566406 1.828125 6.296875 C 1.191406 5.035156 0.703125 3.515625 0.359375 1.734375 C 0.0234375 -0.0351562 -0.140625 -1.929688 -0.140625 -3.953125 C -0.148438 -5.984375 0.03125 -8.003906 0.40625 -10.015625 C 0.78125 -12.023438 1.363281 -13.890625 2.15625 -15.609375 C 2.957031 -17.335938 3.988281 -18.789062 5.25 -19.96875 C 6.519531 -21.144531 8.035156 -21.914062 9.796875 -22.28125 C 10.609375 -22.4375 11.472656 -22.40625 12.390625 -22.1875 Z M 12.390625 -22.1875 "/></g></g></g></g><g fill="#ffffff" fill-opacity="1"><g transform="translate(16.795572, 31.412275)"><g><path d="M 8.171875 -3.71875 C 8.035156 -3.3125 7.769531 -2.84375 7.375 -2.3125 C 6.988281 -1.789062 6.5 -1.457031 5.90625 -1.3125 C 5.320312 -1.164062 4.816406 -1.1875 4.390625 -1.375 C 3.960938 -1.5625 3.726562 -2.070312 3.6875 -2.90625 C 3.195312 -1.957031 2.734375 -1.347656 2.296875 -1.078125 C 1.859375 -0.816406 1.398438 -0.71875 0.921875 -0.78125 C 0.378906 -0.875 0.015625 -1.085938 -0.171875 -1.421875 C -0.367188 -1.753906 -0.4375 -2.132812 -0.375 -2.5625 C -0.3125 -3 -0.175781 -3.421875 0.03125 -3.828125 C 0.1875 -4.117188 0.40625 -4.390625 0.6875 -4.640625 C 0.96875 -4.898438 1.265625 -5.101562 1.578125 -5.25 C 1.953125 -5.445312 2.332031 -5.539062 2.71875 -5.53125 C 3.101562 -5.519531 3.515625 -5.390625 3.953125 -5.140625 C 3.960938 -5.128906 3.96875 -5.140625 3.96875 -5.171875 C 3.96875 -5.210938 3.976562 -5.265625 4 -5.328125 C 4.019531 -5.398438 4.0625 -5.453125 4.125 -5.484375 C 4.257812 -5.597656 4.425781 -5.65625 4.625 -5.65625 C 4.820312 -5.65625 4.976562 -5.554688 5.09375 -5.359375 C 5.101562 -5.097656 5.070312 -4.769531 5 -4.375 C 4.84375 -3.507812 4.84375 -2.882812 5 -2.5 C 5.164062 -2.125 5.445312 -1.945312 5.84375 -1.96875 C 6.25 -2 6.769531 -2.398438 7.40625 -3.171875 C 8.050781 -3.941406 8.304688 -4.125 8.171875 -3.71875 Z M 1.0625 -1.671875 C 1.28125 -1.515625 1.53125 -1.535156 1.8125 -1.734375 C 2.101562 -1.941406 2.378906 -2.226562 2.640625 -2.59375 C 2.910156 -2.96875 3.132812 -3.335938 3.3125 -3.703125 C 3.5 -4.078125 3.601562 -4.351562 3.625 -4.53125 C 3.082031 -4.820312 2.617188 -4.875 2.234375 -4.6875 C 1.847656 -4.5 1.539062 -4.1875 1.3125 -3.75 C 1.082031 -3.320312 0.945312 -2.90625 0.90625 -2.5 C 0.863281 -2.09375 0.914062 -1.816406 1.0625 -1.671875 Z M 1.0625 -1.671875 "/></g></g></g><g fill="#ffffff" fill-opacity="1"><g transform="translate(24.450693, 31.412275)"><g><path d="M 7.46875 -3.640625 C 7.570312 -3.628906 7.550781 -3.484375 7.40625 -3.203125 C 7.269531 -2.921875 7.039062 -2.59375 6.71875 -2.21875 C 6.394531 -1.851562 6.03125 -1.535156 5.625 -1.265625 C 5.21875 -1.003906 4.816406 -0.890625 4.421875 -0.921875 C 4.117188 -0.941406 3.894531 -1.023438 3.75 -1.171875 C 3.613281 -1.328125 3.519531 -1.492188 3.46875 -1.671875 C 3.414062 -1.859375 3.378906 -2.019531 3.359375 -2.15625 C 3.359375 -2.25 3.347656 -2.316406 3.328125 -2.359375 C 3.316406 -2.410156 3.289062 -2.414062 3.25 -2.375 C 2.9375 -1.664062 2.398438 -1.3125 1.640625 -1.3125 C 1.210938 -1.3125 0.863281 -1.5 0.59375 -1.875 C 0.332031 -2.25 0.164062 -2.71875 0.09375 -3.28125 C 0.03125 -3.851562 0.0859375 -4.429688 0.265625 -5.015625 C 0.304688 -5.203125 0.425781 -5.332031 0.625 -5.40625 C 0.757812 -5.457031 0.894531 -5.453125 1.03125 -5.390625 C 1.175781 -5.328125 1.253906 -5.234375 1.265625 -5.109375 C 1.265625 -4.984375 1.257812 -4.859375 1.25 -4.734375 C 1.21875 -4.640625 1.195312 -4.546875 1.1875 -4.453125 C 1.164062 -4.109375 1.171875 -3.726562 1.203125 -3.3125 C 1.234375 -2.894531 1.34375 -2.539062 1.53125 -2.25 C 1.71875 -2.019531 1.921875 -1.988281 2.140625 -2.15625 C 2.367188 -2.332031 2.566406 -2.609375 2.734375 -2.984375 C 2.859375 -3.273438 2.957031 -3.566406 3.03125 -3.859375 C 3.113281 -4.148438 3.160156 -4.375 3.171875 -4.53125 C 3.191406 -4.601562 3.203125 -4.648438 3.203125 -4.671875 C 3.242188 -4.796875 3.28125 -4.914062 3.3125 -5.03125 C 3.363281 -5.207031 3.414062 -5.382812 3.46875 -5.5625 C 3.5625 -5.882812 3.789062 -6.019531 4.15625 -5.96875 C 4.382812 -5.945312 4.507812 -5.835938 4.53125 -5.640625 C 4.550781 -5.359375 4.554688 -5.082031 4.546875 -4.8125 C 4.535156 -4.519531 4.519531 -4.238281 4.5 -3.96875 C 4.476562 -3.5625 4.460938 -3.164062 4.453125 -2.78125 C 4.441406 -2.207031 4.554688 -1.875 4.796875 -1.78125 C 5.035156 -1.6875 5.328125 -1.742188 5.671875 -1.953125 C 6.015625 -2.171875 6.34375 -2.46875 6.65625 -2.84375 C 6.6875 -2.875 6.722656 -2.914062 6.765625 -2.96875 C 6.828125 -3.050781 6.90625 -3.140625 7 -3.234375 C 7.09375 -3.335938 7.179688 -3.425781 7.265625 -3.5 C 7.347656 -3.582031 7.414062 -3.628906 7.46875 -3.640625 Z M 7.46875 -3.640625 "/></g></g></g><g fill="#ffffff" fill-opacity="1"><g transform="translate(31.491965, 31.412275)"><g><path d="M 4.609375 -3.453125 C 4.703125 -3.648438 4.765625 -3.738281 4.796875 -3.71875 C 4.828125 -3.707031 4.832031 -3.628906 4.8125 -3.484375 C 4.800781 -3.347656 4.773438 -3.195312 4.734375 -3.03125 C 4.671875 -2.757812 4.5625 -2.445312 4.40625 -2.09375 C 4.25 -1.75 4.078125 -1.4375 3.890625 -1.15625 C 3.609375 -0.757812 3.257812 -0.460938 2.84375 -0.265625 C 2.4375 -0.0664062 2.066406 -0.015625 1.734375 -0.109375 C 1.398438 -0.210938 1.207031 -0.53125 1.15625 -1.0625 C 1.144531 -1.507812 1.179688 -1.992188 1.265625 -2.515625 C 1.296875 -2.742188 1.328125 -2.960938 1.359375 -3.171875 C 1.359375 -3.242188 1.335938 -3.300781 1.296875 -3.34375 C 1.265625 -3.382812 1.21875 -3.398438 1.15625 -3.390625 C 1.113281 -3.390625 1.066406 -3.390625 1.015625 -3.390625 C 0.742188 -3.347656 0.472656 -3.351562 0.203125 -3.40625 C -0.117188 -3.507812 -0.304688 -3.671875 -0.359375 -3.890625 C -0.421875 -4.117188 -0.421875 -4.421875 -0.359375 -4.796875 C -0.316406 -5.054688 -0.210938 -5.253906 -0.046875 -5.390625 C 0.109375 -5.523438 0.296875 -5.582031 0.515625 -5.5625 C 0.828125 -5.53125 0.976562 -5.410156 0.96875 -5.203125 C 0.957031 -4.992188 0.898438 -4.769531 0.796875 -4.53125 C 0.703125 -4.332031 0.648438 -4.164062 0.640625 -4.03125 C 0.640625 -3.90625 0.753906 -3.863281 0.984375 -3.90625 C 1.035156 -3.914062 1.09375 -3.929688 1.15625 -3.953125 C 1.238281 -3.984375 1.335938 -4.007812 1.453125 -4.03125 C 1.566406 -4.0625 1.710938 -4.070312 1.890625 -4.0625 C 2.097656 -4.050781 2.234375 -3.953125 2.296875 -3.765625 C 2.367188 -3.578125 2.398438 -3.34375 2.390625 -3.0625 C 2.390625 -2.789062 2.363281 -2.507812 2.3125 -2.21875 C 2.257812 -1.851562 2.234375 -1.539062 2.234375 -1.28125 C 2.234375 -1.03125 2.3125 -0.882812 2.46875 -0.84375 C 2.664062 -0.789062 2.957031 -0.96875 3.34375 -1.375 C 3.738281 -1.789062 4.160156 -2.484375 4.609375 -3.453125 Z M 4.609375 -3.453125 "/></g></g></g><g fill="#ffffff" fill-opacity="1"><g transform="translate(35.911714, 31.412275)"><g><path d="M 8.171875 -3.71875 C 8.035156 -3.3125 7.769531 -2.84375 7.375 -2.3125 C 6.988281 -1.789062 6.5 -1.457031 5.90625 -1.3125 C 5.320312 -1.164062 4.816406 -1.1875 4.390625 -1.375 C 3.960938 -1.5625 3.726562 -2.070312 3.6875 -2.90625 C 3.195312 -1.957031 2.734375 -1.347656 2.296875 -1.078125 C 1.859375 -0.816406 1.398438 -0.71875 0.921875 -0.78125 C 0.378906 -0.875 0.015625 -1.085938 -0.171875 -1.421875 C -0.367188 -1.753906 -0.4375 -2.132812 -0.375 -2.5625 C -0.3125 -3 -0.175781 -3.421875 0.03125 -3.828125 C 0.1875 -4.117188 0.40625 -4.390625 0.6875 -4.640625 C 0.96875 -4.898438 1.265625 -5.101562 1.578125 -5.25 C 1.953125 -5.445312 2.332031 -5.539062 2.71875 -5.53125 C 3.101562 -5.519531 3.515625 -5.390625 3.953125 -5.140625 C 3.960938 -5.128906 3.96875 -5.140625 3.96875 -5.171875 C 3.96875 -5.210938 3.976562 -5.265625 4 -5.328125 C 4.019531 -5.398438 4.0625 -5.453125 4.125 -5.484375 C 4.257812 -5.597656 4.425781 -5.65625 4.625 -5.65625 C 4.820312 -5.65625 4.976562 -5.554688 5.09375 -5.359375 C 5.101562 -5.097656 5.070312 -4.769531 5 -4.375 C 4.84375 -3.507812 4.84375 -2.882812 5 -2.5 C 5.164062 -2.125 5.445312 -1.945312 5.84375 -1.96875 C 6.25 -2 6.769531 -2.398438 7.40625 -3.171875 C 8.050781 -3.941406 8.304688 -4.125 8.171875 -3.71875 Z M 1.0625 -1.671875 C 1.28125 -1.515625 1.53125 -1.535156 1.8125 -1.734375 C 2.101562 -1.941406 2.378906 -2.226562 2.640625 -2.59375 C 2.910156 -2.96875 3.132812 -3.335938 3.3125 -3.703125 C 3.5 -4.078125 3.601562 -4.351562 3.625 -4.53125 C 3.082031 -4.820312 2.617188 -4.875 2.234375 -4.6875 C 1.847656 -4.5 1.539062 -4.1875 1.3125 -3.75 C 1.082031 -3.320312 0.945312 -2.90625 0.90625 -2.5 C 0.863281 -2.09375 0.914062 -1.816406 1.0625 -1.671875 Z M 1.0625 -1.671875 "/></g></g></g><g fill="#ffffff" fill-opacity="1"><g transform="translate(43.566835, 31.412275)"><g><path d="M 7.03125 -3.390625 C 6.414062 -3.023438 5.707031 -2.785156 4.90625 -2.671875 C 4.75 -2.359375 4.59375 -2.09375 4.4375 -1.875 C 4.03125 -1.394531 3.5625 -1.097656 3.03125 -0.984375 C 2.5 -0.878906 2.023438 -0.910156 1.609375 -1.078125 C 1.597656 -1.085938 1.585938 -1.09375 1.578125 -1.09375 C 1.472656 -1.144531 1.363281 -1.179688 1.25 -1.203125 C 1.144531 -1.222656 1.035156 -1.203125 0.921875 -1.140625 C 0.859375 -1.109375 0.785156 -1.097656 0.703125 -1.109375 C 0.679688 -1.109375 0.664062 -1.109375 0.65625 -1.109375 C 0.269531 -1.109375 0.0703125 -1.296875 0.0625 -1.671875 C 0.0507812 -2.054688 0.046875 -2.4375 0.046875 -2.8125 C 0.0351562 -3.257812 0.0195312 -3.707031 0 -4.15625 C -0.0625 -5.882812 -0.078125 -7.617188 -0.046875 -9.359375 C -0.015625 -11.097656 0.03125 -12.835938 0.09375 -14.578125 C 0.101562 -14.742188 0.109375 -14.910156 0.109375 -15.078125 C 0.117188 -15.460938 0.164062 -15.945312 0.25 -16.53125 C 0.332031 -17.113281 0.445312 -17.675781 0.59375 -18.21875 C 0.738281 -18.757812 0.914062 -19.15625 1.125 -19.40625 C 1.320312 -19.675781 1.566406 -19.847656 1.859375 -19.921875 C 2.148438 -19.992188 2.429688 -19.984375 2.703125 -19.890625 C 2.972656 -19.796875 3.1875 -19.644531 3.34375 -19.4375 C 3.65625 -18.9375 3.820312 -18.226562 3.84375 -17.3125 C 3.863281 -16.394531 3.785156 -15.375 3.609375 -14.25 C 3.429688 -13.125 3.195312 -12 2.90625 -10.875 C 2.625 -9.75 2.328125 -8.722656 2.015625 -7.796875 C 1.710938 -6.878906 1.4375 -6.164062 1.1875 -5.65625 C 1.613281 -5.894531 1.957031 -6.046875 2.21875 -6.109375 C 2.476562 -6.171875 2.773438 -6.175781 3.109375 -6.125 C 4.265625 -5.976562 4.941406 -5.332031 5.140625 -4.1875 C 5.140625 -4.132812 5.140625 -4.085938 5.140625 -4.046875 C 5.148438 -4.003906 5.15625 -3.960938 5.15625 -3.921875 C 5.175781 -3.765625 5.195312 -3.632812 5.21875 -3.53125 C 5.25 -3.4375 5.519531 -3.46875 6.03125 -3.625 C 6.550781 -3.78125 6.925781 -3.960938 7.15625 -4.171875 C 7.394531 -4.378906 7.546875 -4.460938 7.609375 -4.421875 C 7.859375 -4.160156 7.664062 -3.816406 7.03125 -3.390625 Z M 1.0625 -7.0625 C 1.101562 -7.09375 1.226562 -7.507812 1.4375 -8.3125 C 1.65625 -9.125 1.882812 -10.125 2.125 -11.3125 C 2.363281 -12.5 2.550781 -13.6875 2.6875 -14.875 C 2.832031 -16.070312 2.859375 -17.078125 2.765625 -17.890625 C 2.722656 -18.328125 2.65625 -18.679688 2.5625 -18.953125 C 2.46875 -19.222656 2.351562 -19.316406 2.21875 -19.234375 C 2.09375 -19.148438 1.960938 -18.800781 1.828125 -18.1875 C 1.617188 -17.289062 1.46875 -16.066406 1.375 -14.515625 C 1.289062 -12.960938 1.222656 -11.429688 1.171875 -9.921875 C 1.140625 -8.765625 1.101562 -7.8125 1.0625 -7.0625 Z M 2.3125 -1.890625 C 2.28125 -1.742188 2.316406 -1.664062 2.421875 -1.65625 C 2.535156 -1.65625 2.675781 -1.695312 2.84375 -1.78125 C 3.019531 -1.863281 3.175781 -1.96875 3.3125 -2.09375 C 3.445312 -2.21875 3.507812 -2.351562 3.5 -2.5 C 3.5 -2.5 3.488281 -2.503906 3.46875 -2.515625 C 3.457031 -2.523438 3.445312 -2.53125 3.4375 -2.53125 C 3.25 -2.539062 3.070312 -2.503906 2.90625 -2.421875 C 2.75 -2.335938 2.601562 -2.234375 2.46875 -2.109375 C 2.40625 -2.046875 2.351562 -1.972656 2.3125 -1.890625 Z M 3.9375 -3.703125 C 3.945312 -4.066406 3.851562 -4.421875 3.65625 -4.765625 C 3.457031 -5.109375 3.203125 -5.332031 2.890625 -5.4375 C 2.585938 -5.539062 2.289062 -5.429688 2 -5.109375 C 1.789062 -4.835938 1.648438 -4.46875 1.578125 -4 C 1.515625 -3.539062 1.488281 -3.078125 1.5 -2.609375 C 1.84375 -2.804688 2.191406 -2.96875 2.546875 -3.09375 C 2.898438 -3.226562 3.269531 -3.316406 3.65625 -3.359375 C 3.738281 -3.367188 3.804688 -3.40625 3.859375 -3.46875 C 3.910156 -3.53125 3.9375 -3.609375 3.9375 -3.703125 Z M 3.9375 -3.703125 "/></g></g></g><g fill="#ffffff" fill-opacity="1"><g transform="translate(50.579221, 31.412275)"><g/></g></g><g fill="#ffffff" fill-opacity="1"><g transform="translate(54.247901, 31.412275)"><g><path d="M 25.21875 -21.296875 C 26.238281 -20.628906 26.984375 -19.796875 27.453125 -18.796875 C 27.921875 -17.796875 28.066406 -16.742188 27.890625 -15.640625 C 27.671875 -14.273438 27.179688 -13.0625 26.421875 -12 C 25.648438 -10.9375 24.773438 -9.984375 23.796875 -9.140625 C 22.984375 -8.441406 22.132812 -7.789062 21.25 -7.1875 C 20.375 -6.582031 19.472656 -6.015625 18.546875 -5.484375 C 17.335938 -4.773438 16.113281 -4.078125 14.875 -3.390625 C 14.332031 -3.097656 13.796875 -2.800781 13.265625 -2.5 C 13.234375 -2.476562 13.203125 -2.457031 13.171875 -2.4375 C 13.097656 -2.394531 13.023438 -2.363281 12.953125 -2.34375 C 12.640625 -2.238281 12.425781 -2.085938 12.3125 -1.890625 C 12.195312 -1.691406 12.132812 -1.460938 12.125 -1.203125 C 12.125 -0.953125 12.140625 -0.6875 12.171875 -0.40625 C 12.179688 -0.269531 12.253906 -0.175781 12.390625 -0.125 C 12.546875 -0.0703125 12.703125 -0.03125 12.859375 0 C 13.554688 0.15625 14.253906 0.300781 14.953125 0.4375 C 16.117188 0.675781 17.289062 0.914062 18.46875 1.15625 C 19.757812 1.425781 21.050781 1.703125 22.34375 1.984375 C 23.132812 2.148438 23.925781 2.316406 24.71875 2.484375 C 24.9375 2.535156 25.148438 2.578125 25.359375 2.609375 C 25.609375 2.660156 25.851562 2.71875 26.09375 2.78125 C 26.28125 2.800781 26.460938 2.851562 26.640625 2.9375 C 26.691406 2.96875 26.734375 3.003906 26.765625 3.046875 C 26.804688 3.097656 26.820312 3.160156 26.8125 3.234375 C 26.800781 3.296875 26.773438 3.332031 26.734375 3.34375 C 26.703125 3.363281 26.664062 3.375 26.625 3.375 C 26.476562 3.382812 26.320312 3.375 26.15625 3.34375 C 25.5 3.226562 24.832031 3.117188 24.15625 3.015625 C 23.039062 2.835938 21.929688 2.632812 20.828125 2.40625 C 19.035156 2.019531 17.242188 1.644531 15.453125 1.28125 C 15.066406 1.195312 14.679688 1.117188 14.296875 1.046875 C 13.722656 0.910156 13.140625 0.796875 12.546875 0.703125 C 12.285156 0.648438 12.15625 0.765625 12.15625 1.046875 C 12.144531 1.234375 12.140625 1.414062 12.140625 1.59375 C 12.140625 1.6875 12.140625 1.78125 12.140625 1.875 C 12.109375 4.976562 12.078125 8.078125 12.046875 11.171875 C 12.046875 11.210938 12.046875 11.253906 12.046875 11.296875 C 12.046875 11.410156 12.039062 11.523438 12.03125 11.640625 C 12.007812 11.929688 11.847656 12.054688 11.546875 12.015625 C 11.242188 11.960938 11.078125 11.800781 11.046875 11.53125 C 11.023438 11.394531 11.019531 11.257812 11.03125 11.125 C 11.03125 11.09375 11.03125 11.070312 11.03125 11.0625 C 11.019531 9.4375 11.003906 7.832031 10.984375 6.25 C 10.960938 4.644531 10.953125 3.019531 10.953125 1.375 C 10.953125 1.300781 10.953125 1.222656 10.953125 1.140625 C 10.941406 0.992188 10.941406 0.851562 10.953125 0.71875 C 10.960938 0.476562 10.851562 0.300781 10.625 0.1875 C 10.59375 0.1875 10.566406 0.179688 10.546875 0.171875 C 10.359375 0.0859375 10.179688 -0.00390625 10.015625 -0.109375 C 9.515625 -0.429688 9.398438 -0.828125 9.671875 -1.296875 C 9.867188 -1.628906 10.132812 -1.890625 10.46875 -2.078125 C 10.664062 -2.179688 10.796875 -2.316406 10.859375 -2.484375 C 10.929688 -2.660156 10.96875 -2.867188 10.96875 -3.109375 C 10.957031 -5.796875 10.957031 -8.488281 10.96875 -11.1875 C 10.96875 -11.84375 10.96875 -12.5 10.96875 -13.15625 C 10.96875 -13.1875 10.96875 -13.222656 10.96875 -13.265625 C 10.96875 -13.515625 10.972656 -13.753906 10.984375 -13.984375 C 11.015625 -14.273438 11.210938 -14.394531 11.578125 -14.34375 C 11.921875 -14.300781 12.097656 -14.125 12.109375 -13.8125 C 12.109375 -13.613281 12.109375 -13.425781 12.109375 -13.25 C 12.109375 -13.1875 12.109375 -13.125 12.109375 -13.0625 C 12.117188 -11.59375 12.125 -10.125 12.125 -8.65625 C 12.125 -7.207031 12.128906 -5.753906 12.140625 -4.296875 C 12.140625 -4.285156 12.140625 -4.273438 12.140625 -4.265625 C 12.140625 -4.023438 12.144531 -3.789062 12.15625 -3.5625 C 12.175781 -3.320312 12.300781 -3.242188 12.53125 -3.328125 C 12.601562 -3.359375 12.675781 -3.398438 12.75 -3.453125 C 12.757812 -3.453125 12.765625 -3.453125 12.765625 -3.453125 C 14.078125 -4.148438 15.375 -4.875 16.65625 -5.625 C 17.945312 -6.375 19.203125 -7.175781 20.421875 -8.03125 C 21.265625 -8.613281 22.066406 -9.242188 22.828125 -9.921875 C 23.585938 -10.597656 24.28125 -11.347656 24.90625 -12.171875 C 25.582031 -13.046875 26.078125 -14.03125 26.390625 -15.125 C 26.585938 -15.84375 26.640625 -16.597656 26.546875 -17.390625 C 26.378906 -18.609375 25.8125 -19.632812 24.84375 -20.46875 C 24.382812 -20.851562 23.890625 -21.164062 23.359375 -21.40625 C 21.421875 -22.3125 19.476562 -22.773438 17.53125 -22.796875 C 15.59375 -22.828125 13.722656 -22.515625 11.921875 -21.859375 C 10.128906 -21.203125 8.484375 -20.3125 6.984375 -19.1875 C 5.492188 -18.070312 4.222656 -16.816406 3.171875 -15.421875 C 2.753906 -14.941406 2.390625 -14.425781 2.078125 -13.875 C 1.867188 -13.519531 1.679688 -13.15625 1.515625 -12.78125 C 1.347656 -12.414062 1.238281 -12.015625 1.1875 -11.578125 C 1.175781 -11.472656 1.132812 -11.398438 1.0625 -11.359375 C 1 -11.316406 0.921875 -11.300781 0.828125 -11.3125 C 0.703125 -11.3125 0.582031 -11.332031 0.46875 -11.375 C 0.21875 -11.457031 0.0859375 -11.628906 0.078125 -11.890625 C 0.0664062 -12.222656 0.125 -12.546875 0.25 -12.859375 C 0.664062 -14.003906 1.265625 -15.023438 2.046875 -15.921875 C 3.253906 -17.335938 4.679688 -18.613281 6.328125 -19.75 C 7.972656 -20.894531 9.753906 -21.796875 11.671875 -22.453125 C 13.597656 -23.117188 15.585938 -23.441406 17.640625 -23.421875 C 19.703125 -23.410156 21.75 -22.96875 23.78125 -22.09375 C 24.28125 -21.863281 24.757812 -21.597656 25.21875 -21.296875 Z M 25.21875 -21.296875 "/></g></g></g><g fill="#ffffff" fill-opacity="1"><g transform="translate(76.714965, 31.412275)"><g><path d="M 5.546875 -3.953125 C 5.617188 -4.023438 5.65625 -3.9375 5.65625 -3.6875 C 5.664062 -3.4375 5.441406 -3.085938 4.984375 -2.640625 C 4.535156 -2.203125 4.066406 -1.992188 3.578125 -2.015625 C 3.472656 -2.023438 3.378906 -2.015625 3.296875 -1.984375 C 3.222656 -1.960938 3.160156 -1.90625 3.109375 -1.8125 C 3.054688 -1.71875 2.992188 -1.632812 2.921875 -1.5625 C 2.921875 -1.5625 2.914062 -1.554688 2.90625 -1.546875 C 2.613281 -1.234375 2.265625 -1.023438 1.859375 -0.921875 C 1.453125 -0.816406 1.066406 -0.847656 0.703125 -1.015625 C 0.347656 -1.179688 0.09375 -1.492188 -0.0625 -1.953125 C -0.175781 -2.367188 -0.1875 -2.78125 -0.09375 -3.1875 C -0.0078125 -3.550781 0.117188 -3.890625 0.296875 -4.203125 C 0.523438 -4.628906 0.816406 -4.929688 1.171875 -5.109375 C 1.523438 -5.285156 1.925781 -5.378906 2.375 -5.390625 C 3.03125 -5.429688 3.445312 -5.117188 3.625 -4.453125 C 3.726562 -4.078125 3.753906 -3.691406 3.703125 -3.296875 C 3.691406 -3.210938 3.675781 -3.125 3.65625 -3.03125 C 3.632812 -2.96875 3.617188 -2.90625 3.609375 -2.84375 C 3.585938 -2.625 3.675781 -2.523438 3.875 -2.546875 C 4.4375 -2.640625 4.992188 -3.109375 5.546875 -3.953125 Z M 1.625 -1.484375 C 1.957031 -1.648438 2.191406 -1.921875 2.328125 -2.296875 C 1.765625 -2.660156 1.382812 -3.179688 1.1875 -3.859375 C 1.007812 -3.535156 0.898438 -3.160156 0.859375 -2.734375 C 0.828125 -2.316406 0.867188 -1.96875 0.984375 -1.6875 C 1.109375 -1.414062 1.320312 -1.347656 1.625 -1.484375 Z M 2.59375 -3.046875 C 2.6875 -3.179688 2.738281 -3.347656 2.75 -3.546875 C 2.769531 -3.742188 2.757812 -3.9375 2.71875 -4.125 C 2.6875 -4.320312 2.640625 -4.476562 2.578125 -4.59375 C 2.515625 -4.707031 2.445312 -4.742188 2.375 -4.703125 C 2.238281 -4.578125 2.160156 -4.40625 2.140625 -4.1875 C 2.128906 -3.976562 2.164062 -3.765625 2.25 -3.546875 C 2.332031 -3.328125 2.445312 -3.160156 2.59375 -3.046875 Z M 2.59375 -3.046875 "/></g></g></g><g clip-path="url(#7d7193b859)"><g fill="#ffffff" fill-opacity="1"><g transform="translate(82.09522, 31.412275)"><g><path d="M 8.15625 -3.65625 C 8.320312 -3.644531 8.347656 -3.554688 8.234375 -3.390625 C 8.128906 -3.234375 7.941406 -3.03125 7.671875 -2.78125 C 7.410156 -2.539062 7.128906 -2.289062 6.828125 -2.03125 C 6.410156 -1.675781 6.070312 -1.375 5.8125 -1.125 C 5.53125 -0.882812 5.300781 -0.546875 5.125 -0.109375 C 4.945312 0.316406 4.859375 0.707031 4.859375 1.0625 C 4.859375 1.257812 4.859375 1.488281 4.859375 1.75 C 4.867188 2.289062 4.867188 2.941406 4.859375 3.703125 C 4.847656 4.460938 4.804688 5.242188 4.734375 6.046875 C 4.660156 6.859375 4.523438 7.617188 4.328125 8.328125 C 4.128906 9.046875 3.847656 9.628906 3.484375 10.078125 C 3.128906 10.523438 2.671875 10.769531 2.109375 10.8125 C 1.035156 10.84375 0.300781 10.398438 -0.09375 9.484375 C -0.40625 8.703125 -0.507812 7.90625 -0.40625 7.09375 C -0.300781 6.28125 -0.0703125 5.484375 0.28125 4.703125 C 0.632812 3.929688 1.03125 3.21875 1.46875 2.5625 C 1.914062 1.914062 2.335938 1.375 2.734375 0.9375 C 3.128906 0.5 3.410156 0.203125 3.578125 0.046875 C 3.648438 -0.191406 3.691406 -0.46875 3.703125 -0.78125 C 3.710938 -1.101562 3.710938 -1.414062 3.703125 -1.71875 C 3.691406 -1.8125 3.6875 -1.894531 3.6875 -1.96875 C 3.46875 -1.632812 3.242188 -1.398438 3.015625 -1.265625 C 2.796875 -1.140625 2.570312 -1.070312 2.34375 -1.0625 C 2.113281 -1.050781 1.898438 -1.054688 1.703125 -1.078125 C 1.679688 -1.078125 1.660156 -1.078125 1.640625 -1.078125 C 1.171875 -1.140625 0.800781 -1.359375 0.53125 -1.734375 C 0.257812 -2.109375 0.0820312 -2.535156 0 -3.015625 C -0.0703125 -3.503906 -0.0507812 -3.9375 0.0625 -4.3125 C 0.1875 -4.695312 0.410156 -4.921875 0.734375 -4.984375 C 0.859375 -5.015625 1 -5.03125 1.15625 -5.03125 C 1.320312 -5.03125 1.457031 -5.007812 1.5625 -4.96875 C 1.664062 -4.925781 1.703125 -4.847656 1.671875 -4.734375 C 1.578125 -4.335938 1.519531 -3.910156 1.5 -3.453125 C 1.488281 -2.992188 1.53125 -2.59375 1.625 -2.25 C 1.71875 -1.90625 1.882812 -1.71875 2.125 -1.6875 C 2.375 -1.664062 2.695312 -1.890625 3.09375 -2.359375 C 3.289062 -2.609375 3.425781 -2.859375 3.5 -3.109375 C 3.570312 -3.367188 3.628906 -3.648438 3.671875 -3.953125 C 3.679688 -4.054688 3.695312 -4.160156 3.71875 -4.265625 C 3.726562 -4.367188 3.742188 -4.476562 3.765625 -4.59375 C 3.773438 -4.726562 3.789062 -4.863281 3.8125 -5 C 3.863281 -5.21875 3.988281 -5.367188 4.1875 -5.453125 C 4.382812 -5.546875 4.59375 -5.539062 4.8125 -5.4375 C 4.9375 -5.363281 5.003906 -5.265625 5.015625 -5.140625 C 5.046875 -4.898438 5.0625 -4.660156 5.0625 -4.421875 C 5.039062 -3.554688 5.03125 -2.5 5.03125 -1.25 C 5.050781 -1.257812 5.160156 -1.347656 5.359375 -1.515625 C 5.609375 -1.753906 5.929688 -2.035156 6.328125 -2.359375 C 6.722656 -2.691406 7.09375 -2.988281 7.4375 -3.25 C 7.789062 -3.507812 8.03125 -3.644531 8.15625 -3.65625 Z M 3.453125 3.6875 C 3.453125 3.570312 3.457031 3.453125 3.46875 3.328125 C 3.476562 2.867188 3.492188 2.40625 3.515625 1.9375 C 3.515625 1.925781 3.503906 1.90625 3.484375 1.875 C 3.472656 1.84375 3.457031 1.816406 3.4375 1.796875 C 3.382812 1.753906 3.335938 1.75 3.296875 1.78125 C 3.265625 1.8125 3.226562 1.835938 3.1875 1.859375 C 2.75 2.429688 2.332031 3.082031 1.9375 3.8125 C 1.539062 4.539062 1.234375 5.296875 1.015625 6.078125 C 0.796875 6.859375 0.707031 7.625 0.75 8.375 C 0.78125 8.84375 0.925781 9.273438 1.1875 9.671875 C 1.507812 10.109375 1.789062 10.265625 2.03125 10.140625 C 2.269531 10.015625 2.46875 9.710938 2.625 9.234375 C 2.789062 8.753906 2.925781 8.1875 3.03125 7.53125 C 3.132812 6.875 3.210938 6.234375 3.265625 5.609375 C 3.328125 4.992188 3.378906 4.476562 3.421875 4.0625 C 3.429688 3.914062 3.441406 3.789062 3.453125 3.6875 Z M 3.453125 3.6875 "/></g></g></g></g></svg>