<svg xmlns="http://www.w3.org/2000/svg" xmlns:xlink="http://www.w3.org/1999/xlink" width="1024" zoomAndPan="magnify" viewBox="0 0 768 767.999994" height="1024" preserveAspectRatio="xMidYMid meet" version="1.0"><defs><g/></defs><g fill="#000000" fill-opacity="1"><g transform="translate(214.60546, 426.850048)"><g><path d="M 46.875 -83.953125 C 50.519531 -83.035156 53.460938 -80.875 55.703125 -77.46875 C 58.140625 -73.625 59.585938 -69.695312 60.046875 -65.6875 C 60.160156 -64.425781 59.578125 -63.820312 58.296875 -63.875 C 57.054688 -63.914062 56.207031 -64.59375 55.75 -65.90625 C 55.550781 -66.5625 55.378906 -67.207031 55.234375 -67.84375 C 55.140625 -68.28125 55.039062 -68.71875 54.9375 -69.15625 C 54.164062 -71.882812 52.898438 -74.472656 51.140625 -76.921875 C 48.859375 -80.085938 46.03125 -81.753906 42.65625 -81.921875 C 40.289062 -81.960938 38.125 -81.535156 36.15625 -80.640625 C 30.90625 -78.398438 26.351562 -75.019531 22.5 -70.5 C 18.65625 -65.988281 15.46875 -60.722656 12.9375 -54.703125 C 10.40625 -48.691406 8.5 -42.316406 7.21875 -35.578125 C 5.945312 -28.847656 5.21875 -22.140625 5.03125 -15.453125 C 4.851562 -8.773438 5.179688 -2.503906 6.015625 3.359375 C 6.859375 9.234375 8.140625 14.296875 9.859375 18.546875 C 11.578125 22.804688 13.617188 26.078125 15.984375 28.359375 C 18.359375 30.640625 21.25 31.390625 24.65625 30.609375 C 28.070312 29.835938 32.273438 25.550781 37.265625 17.75 C 42.265625 9.945312 46.6875 -3.84375 50.53125 -23.625 C 50.726562 -24.332031 50.695312 -24.816406 50.4375 -25.078125 C 50.175781 -25.347656 49.625 -25.484375 48.78125 -25.484375 C 48.75 -25.484375 48.695312 -25.484375 48.625 -25.484375 C 48.457031 -25.484375 48.289062 -25.46875 48.125 -25.4375 C 46.644531 -25.34375 45.140625 -25.238281 43.609375 -25.125 C 39.640625 -24.832031 35.664062 -24.550781 31.6875 -24.28125 C 30.582031 -24.25 29.460938 -24.25 28.328125 -24.28125 C 28.296875 -24.28125 28.28125 -24.28125 28.28125 -24.28125 C 28 -24.320312 27.742188 -24.421875 27.515625 -24.578125 C 27.296875 -24.742188 27.128906 -24.945312 27.015625 -25.1875 C 26.890625 -25.425781 26.859375 -25.65625 26.921875 -25.875 C 26.984375 -26.09375 27.132812 -26.242188 27.375 -26.328125 C 27.570312 -26.367188 27.769531 -26.425781 27.96875 -26.5 C 28.695312 -26.789062 29.4375 -26.972656 30.1875 -27.046875 C 34.09375 -27.484375 37.445312 -27.78125 40.25 -27.9375 C 43.0625 -28.101562 46.820312 -28.554688 51.53125 -29.296875 C 56.238281 -30.035156 58.492188 -27.945312 58.296875 -23.03125 C 58.097656 -18.125 58.234375 -12.789062 58.703125 -7.03125 C 59.035156 -3.851562 59.382812 -0.679688 59.75 2.484375 C 60.144531 5.691406 60.597656 8.921875 61.109375 12.171875 C 61.316406 13.503906 61.535156 14.851562 61.765625 16.21875 C 61.828125 16.53125 61.894531 16.832031 61.96875 17.125 C 62 17.425781 62.0625 17.722656 62.15625 18.015625 C 62.351562 19.054688 61.988281 19.597656 61.0625 19.640625 C 59.820312 19.765625 58.957031 19.328125 58.46875 18.328125 C 58.1875 17.722656 57.945312 17.09375 57.75 16.4375 C 57.71875 16.363281 57.679688 16.265625 57.640625 16.140625 C 56.035156 11.523438 55.050781 6.957031 54.6875 2.4375 C 54.394531 -0.570312 54.113281 -3.597656 53.84375 -6.640625 C 53.675781 -8.140625 53.507812 -9.628906 53.34375 -11.109375 C 52.90625 -10.742188 52.59375 -10.332031 52.40625 -9.875 C 52.226562 -9.414062 52.125 -8.941406 52.09375 -8.453125 C 52.050781 -8.210938 51.992188 -7.972656 51.921875 -7.734375 C 48.628906 2.492188 44.925781 11.253906 40.8125 18.546875 C 36.695312 25.847656 32.320312 30.660156 27.6875 32.984375 C 23.0625 35.316406 19.050781 35.578125 15.65625 33.765625 C 12.269531 31.960938 9.363281 28.664062 6.9375 23.875 C 4.519531 19.082031 2.664062 13.328125 1.375 6.609375 C 0.09375 -0.109375 -0.554688 -7.304688 -0.578125 -14.984375 C -0.597656 -22.660156 0.101562 -30.296875 1.53125 -37.890625 C 2.957031 -45.492188 5.179688 -52.5625 8.203125 -59.09375 C 11.234375 -65.632812 15.132812 -71.132812 19.90625 -75.59375 C 24.6875 -80.050781 30.398438 -82.960938 37.046875 -84.328125 C 40.148438 -84.929688 43.425781 -84.804688 46.875 -83.953125 Z M 46.875 -83.953125 "/></g></g></g><g fill="#000000" fill-opacity="1"><g transform="translate(277.241249, 426.850048)"><g><path d="M 30.9375 -14.0625 C 30.4375 -12.53125 29.441406 -10.773438 27.953125 -8.796875 C 26.472656 -6.816406 24.617188 -5.539062 22.390625 -4.96875 C 20.171875 -4.40625 18.25 -4.484375 16.625 -5.203125 C 15 -5.929688 14.109375 -7.863281 13.953125 -11 C 12.109375 -7.425781 10.351562 -5.132812 8.6875 -4.125 C 7.019531 -3.125 5.28125 -2.742188 3.46875 -2.984375 C 1.425781 -3.304688 0.046875 -4.097656 -0.671875 -5.359375 C -1.390625 -6.617188 -1.628906 -8.070312 -1.390625 -9.71875 C -1.160156 -11.375 -0.660156 -12.957031 0.109375 -14.46875 C 0.710938 -15.59375 1.546875 -16.640625 2.609375 -17.609375 C 3.679688 -18.578125 4.800781 -19.332031 5.96875 -19.875 C 7.40625 -20.601562 8.851562 -20.945312 10.3125 -20.90625 C 11.769531 -20.875 13.328125 -20.394531 14.984375 -19.46875 C 15.023438 -19.4375 15.046875 -19.472656 15.046875 -19.578125 C 15.046875 -19.742188 15.082031 -19.945312 15.15625 -20.1875 C 15.238281 -20.4375 15.382812 -20.632812 15.59375 -20.78125 C 16.132812 -21.1875 16.78125 -21.390625 17.53125 -21.390625 C 18.28125 -21.390625 18.851562 -21.015625 19.25 -20.265625 C 19.320312 -19.296875 19.222656 -18.066406 18.953125 -16.578125 C 18.347656 -13.296875 18.347656 -10.929688 18.953125 -9.484375 C 19.554688 -8.046875 20.617188 -7.375 22.140625 -7.46875 C 23.660156 -7.570312 25.628906 -9.078125 28.046875 -11.984375 C 30.472656 -14.898438 31.4375 -15.59375 30.9375 -14.0625 Z M 4.015625 -6.34375 C 4.859375 -5.738281 5.820312 -5.816406 6.90625 -6.578125 C 7.988281 -7.347656 9.03125 -8.4375 10.03125 -9.84375 C 11.039062 -11.25 11.882812 -12.648438 12.5625 -14.046875 C 13.25 -15.453125 13.628906 -16.492188 13.703125 -17.171875 C 11.660156 -18.265625 9.910156 -18.453125 8.453125 -17.734375 C 6.992188 -17.015625 5.832031 -15.835938 4.96875 -14.203125 C 4.101562 -12.578125 3.585938 -10.992188 3.421875 -9.453125 C 3.253906 -7.910156 3.453125 -6.875 4.015625 -6.34375 Z M 4.015625 -6.34375 "/></g></g></g><g fill="#000000" fill-opacity="1"><g transform="translate(306.221579, 426.850048)"><g><path d="M 28.28125 -13.75 C 28.675781 -13.71875 28.601562 -13.164062 28.0625 -12.09375 C 27.53125 -11.03125 26.648438 -9.804688 25.421875 -8.421875 C 24.191406 -7.035156 22.8125 -5.84375 21.28125 -4.84375 C 19.757812 -3.84375 18.242188 -3.382812 16.734375 -3.46875 C 15.609375 -3.582031 14.773438 -3.921875 14.234375 -4.484375 C 13.691406 -5.046875 13.320312 -5.671875 13.125 -6.359375 C 12.925781 -7.046875 12.800781 -7.644531 12.75 -8.15625 C 12.707031 -8.519531 12.660156 -8.789062 12.609375 -8.96875 C 12.554688 -9.15625 12.445312 -9.164062 12.28125 -9 C 11.113281 -6.320312 9.085938 -4.984375 6.203125 -4.984375 C 4.597656 -4.984375 3.296875 -5.691406 2.296875 -7.109375 C 1.296875 -8.535156 0.660156 -10.316406 0.390625 -12.453125 C 0.128906 -14.597656 0.335938 -16.773438 1.015625 -18.984375 C 1.179688 -19.710938 1.628906 -20.210938 2.359375 -20.484375 C 2.867188 -20.679688 3.394531 -20.660156 3.9375 -20.421875 C 4.488281 -20.191406 4.78125 -19.835938 4.8125 -19.359375 C 4.8125 -18.867188 4.773438 -18.382812 4.703125 -17.90625 C 4.609375 -17.539062 4.546875 -17.195312 4.515625 -16.875 C 4.441406 -15.5625 4.460938 -14.117188 4.578125 -12.546875 C 4.703125 -10.984375 5.117188 -9.644531 5.828125 -8.53125 C 6.515625 -7.632812 7.273438 -7.519531 8.109375 -8.1875 C 8.953125 -8.851562 9.695312 -9.890625 10.34375 -11.296875 C 10.832031 -12.410156 11.21875 -13.515625 11.5 -14.609375 C 11.78125 -15.710938 11.957031 -16.566406 12.03125 -17.171875 C 12.101562 -17.429688 12.140625 -17.597656 12.140625 -17.671875 C 12.265625 -18.140625 12.394531 -18.601562 12.53125 -19.0625 C 12.726562 -19.738281 12.925781 -20.394531 13.125 -21.03125 C 13.46875 -22.269531 14.34375 -22.789062 15.75 -22.59375 C 16.601562 -22.519531 17.066406 -22.097656 17.140625 -21.328125 C 17.210938 -20.285156 17.234375 -19.25 17.203125 -18.21875 C 17.160156 -17.125 17.101562 -16.054688 17.03125 -15.015625 C 16.945312 -13.503906 16.882812 -12 16.84375 -10.5 C 16.8125 -8.332031 17.242188 -7.070312 18.140625 -6.71875 C 19.046875 -6.363281 20.148438 -6.59375 21.453125 -7.40625 C 22.753906 -8.226562 24.007812 -9.34375 25.21875 -10.75 C 25.320312 -10.875 25.457031 -11.035156 25.625 -11.234375 C 25.863281 -11.546875 26.15625 -11.894531 26.5 -12.28125 C 26.84375 -12.664062 27.171875 -13 27.484375 -13.28125 C 27.804688 -13.5625 28.070312 -13.71875 28.28125 -13.75 Z M 28.28125 -13.75 "/></g></g></g><g fill="#000000" fill-opacity="1"><g transform="translate(332.878015, 426.850048)"><g><path d="M 17.453125 -13.09375 C 17.796875 -13.8125 18.03125 -14.140625 18.15625 -14.078125 C 18.28125 -14.023438 18.3125 -13.738281 18.25 -13.21875 C 18.1875 -12.695312 18.070312 -12.109375 17.90625 -11.453125 C 17.675781 -10.453125 17.269531 -9.289062 16.6875 -7.96875 C 16.101562 -6.644531 15.453125 -5.445312 14.734375 -4.375 C 13.679688 -2.882812 12.375 -1.757812 10.8125 -1 C 9.257812 -0.238281 7.847656 -0.0507812 6.578125 -0.4375 C 5.304688 -0.820312 4.570312 -2.015625 4.375 -4.015625 C 4.34375 -5.691406 4.488281 -7.535156 4.8125 -9.546875 C 4.925781 -10.378906 5.046875 -11.195312 5.171875 -12 C 5.171875 -12.289062 5.097656 -12.515625 4.953125 -12.671875 C 4.804688 -12.828125 4.613281 -12.890625 4.375 -12.859375 C 4.207031 -12.859375 4.023438 -12.859375 3.828125 -12.859375 C 2.828125 -12.691406 1.804688 -12.707031 0.765625 -12.90625 C -0.472656 -13.269531 -1.191406 -13.882812 -1.390625 -14.75 C -1.597656 -15.613281 -1.582031 -16.75 -1.34375 -18.15625 C -1.21875 -19.15625 -0.84375 -19.90625 -0.21875 -20.40625 C 0.40625 -20.914062 1.132812 -21.125 1.96875 -21.03125 C 3.132812 -20.914062 3.695312 -20.46875 3.65625 -19.6875 C 3.625 -18.90625 3.410156 -18.066406 3.015625 -17.171875 C 2.648438 -16.421875 2.457031 -15.796875 2.4375 -15.296875 C 2.414062 -14.796875 2.84375 -14.617188 3.71875 -14.765625 C 3.914062 -14.816406 4.132812 -14.878906 4.375 -14.953125 C 4.707031 -15.085938 5.082031 -15.203125 5.5 -15.296875 C 5.914062 -15.398438 6.460938 -15.425781 7.140625 -15.375 C 7.941406 -15.332031 8.472656 -14.957031 8.734375 -14.25 C 9.003906 -13.550781 9.117188 -12.671875 9.078125 -11.609375 C 9.046875 -10.554688 8.945312 -9.484375 8.78125 -8.390625 C 8.582031 -7.023438 8.484375 -5.851562 8.484375 -4.875 C 8.484375 -3.90625 8.765625 -3.335938 9.328125 -3.171875 C 10.078125 -2.972656 11.191406 -3.648438 12.671875 -5.203125 C 14.160156 -6.765625 15.753906 -9.394531 17.453125 -13.09375 Z M 17.453125 -13.09375 "/></g></g></g><g fill="#000000" fill-opacity="1"><g transform="translate(349.610054, 426.850048)"><g><path d="M 30.9375 -14.0625 C 30.4375 -12.53125 29.441406 -10.773438 27.953125 -8.796875 C 26.472656 -6.816406 24.617188 -5.539062 22.390625 -4.96875 C 20.171875 -4.40625 18.25 -4.484375 16.625 -5.203125 C 15 -5.929688 14.109375 -7.863281 13.953125 -11 C 12.109375 -7.425781 10.351562 -5.132812 8.6875 -4.125 C 7.019531 -3.125 5.28125 -2.742188 3.46875 -2.984375 C 1.425781 -3.304688 0.046875 -4.097656 -0.671875 -5.359375 C -1.390625 -6.617188 -1.628906 -8.070312 -1.390625 -9.71875 C -1.160156 -11.375 -0.660156 -12.957031 0.109375 -14.46875 C 0.710938 -15.59375 1.546875 -16.640625 2.609375 -17.609375 C 3.679688 -18.578125 4.800781 -19.332031 5.96875 -19.875 C 7.40625 -20.601562 8.851562 -20.945312 10.3125 -20.90625 C 11.769531 -20.875 13.328125 -20.394531 14.984375 -19.46875 C 15.023438 -19.4375 15.046875 -19.472656 15.046875 -19.578125 C 15.046875 -19.742188 15.082031 -19.945312 15.15625 -20.1875 C 15.238281 -20.4375 15.382812 -20.632812 15.59375 -20.78125 C 16.132812 -21.1875 16.78125 -21.390625 17.53125 -21.390625 C 18.28125 -21.390625 18.851562 -21.015625 19.25 -20.265625 C 19.320312 -19.296875 19.222656 -18.066406 18.953125 -16.578125 C 18.347656 -13.296875 18.347656 -10.929688 18.953125 -9.484375 C 19.554688 -8.046875 20.617188 -7.375 22.140625 -7.46875 C 23.660156 -7.570312 25.628906 -9.078125 28.046875 -11.984375 C 30.472656 -14.898438 31.4375 -15.59375 30.9375 -14.0625 Z M 4.015625 -6.34375 C 4.859375 -5.738281 5.820312 -5.816406 6.90625 -6.578125 C 7.988281 -7.347656 9.03125 -8.4375 10.03125 -9.84375 C 11.039062 -11.25 11.882812 -12.648438 12.5625 -14.046875 C 13.25 -15.453125 13.628906 -16.492188 13.703125 -17.171875 C 11.660156 -18.265625 9.910156 -18.453125 8.453125 -17.734375 C 6.992188 -17.015625 5.832031 -15.835938 4.96875 -14.203125 C 4.101562 -12.578125 3.585938 -10.992188 3.421875 -9.453125 C 3.253906 -7.910156 3.453125 -6.875 4.015625 -6.34375 Z M 4.015625 -6.34375 "/></g></g></g><g fill="#000000" fill-opacity="1"><g transform="translate(378.590384, 426.850048)"><g><path d="M 26.609375 -12.859375 C 24.273438 -11.453125 21.601562 -10.53125 18.59375 -10.09375 C 17.988281 -8.925781 17.390625 -7.921875 16.796875 -7.078125 C 15.265625 -5.273438 13.492188 -4.164062 11.484375 -3.75 C 9.484375 -3.332031 7.679688 -3.441406 6.078125 -4.078125 C 6.035156 -4.109375 6 -4.125 5.96875 -4.125 C 5.5625 -4.332031 5.15625 -4.472656 4.75 -4.546875 C 4.351562 -4.628906 3.9375 -4.554688 3.5 -4.328125 C 3.257812 -4.191406 2.976562 -4.144531 2.65625 -4.1875 C 2.582031 -4.1875 2.519531 -4.1875 2.46875 -4.1875 C 1.019531 -4.1875 0.28125 -4.90625 0.25 -6.34375 C 0.207031 -7.800781 0.1875 -9.234375 0.1875 -10.640625 C 0.15625 -12.347656 0.09375 -14.050781 0 -15.75 C -0.238281 -22.28125 -0.296875 -28.832031 -0.171875 -35.40625 C -0.0546875 -41.988281 0.117188 -48.570312 0.359375 -55.15625 C 0.410156 -55.789062 0.4375 -56.425781 0.4375 -57.0625 C 0.476562 -58.539062 0.644531 -60.382812 0.9375 -62.59375 C 1.238281 -64.800781 1.664062 -66.921875 2.21875 -68.953125 C 2.78125 -70.984375 3.460938 -72.472656 4.265625 -73.421875 C 4.992188 -74.472656 5.910156 -75.132812 7.015625 -75.40625 C 8.117188 -75.6875 9.1875 -75.648438 10.21875 -75.296875 C 11.257812 -74.941406 12.066406 -74.363281 12.640625 -73.5625 C 13.835938 -71.664062 14.476562 -68.984375 14.5625 -65.515625 C 14.644531 -62.054688 14.34375 -58.195312 13.65625 -53.9375 C 12.976562 -49.675781 12.09375 -45.410156 11 -41.140625 C 9.914062 -36.878906 8.796875 -33.003906 7.640625 -29.515625 C 6.484375 -26.023438 5.441406 -23.316406 4.515625 -21.390625 C 6.117188 -22.316406 7.410156 -22.894531 8.390625 -23.125 C 9.378906 -23.363281 10.507812 -23.382812 11.78125 -23.1875 C 16.15625 -22.644531 18.707031 -20.203125 19.4375 -15.859375 C 19.4375 -15.660156 19.4375 -15.476562 19.4375 -15.3125 C 19.476562 -15.144531 19.5 -14.988281 19.5 -14.84375 C 19.570312 -14.25 19.65625 -13.769531 19.75 -13.40625 C 19.851562 -13.039062 20.878906 -13.148438 22.828125 -13.734375 C 24.785156 -14.316406 26.210938 -15 27.109375 -15.78125 C 28.015625 -16.5625 28.585938 -16.890625 28.828125 -16.765625 C 29.753906 -15.765625 29.015625 -14.460938 26.609375 -12.859375 Z M 4.046875 -26.75 C 4.191406 -26.875 4.664062 -28.457031 5.46875 -31.5 C 6.269531 -34.539062 7.117188 -38.304688 8.015625 -42.796875 C 8.921875 -47.296875 9.644531 -51.800781 10.1875 -56.3125 C 10.738281 -60.820312 10.832031 -64.617188 10.46875 -67.703125 C 10.3125 -69.359375 10.050781 -70.695312 9.6875 -71.71875 C 9.332031 -72.738281 8.914062 -73.085938 8.4375 -72.765625 C 7.957031 -72.453125 7.453125 -71.148438 6.921875 -68.859375 C 6.117188 -65.441406 5.546875 -60.796875 5.203125 -54.921875 C 4.867188 -49.054688 4.617188 -43.273438 4.453125 -37.578125 C 4.328125 -33.203125 4.191406 -29.59375 4.046875 -26.75 Z M 8.78125 -7.140625 C 8.632812 -6.609375 8.769531 -6.332031 9.1875 -6.3125 C 9.601562 -6.300781 10.140625 -6.441406 10.796875 -6.734375 C 11.453125 -7.035156 12.03125 -7.425781 12.53125 -7.90625 C 13.039062 -8.394531 13.273438 -8.90625 13.234375 -9.4375 C 13.234375 -9.46875 13.207031 -9.5 13.15625 -9.53125 C 13.101562 -9.570312 13.046875 -9.59375 12.984375 -9.59375 C 12.273438 -9.632812 11.617188 -9.492188 11.015625 -9.171875 C 10.421875 -8.859375 9.859375 -8.460938 9.328125 -7.984375 C 9.085938 -7.742188 8.90625 -7.460938 8.78125 -7.140625 Z M 14.875 -14 C 14.945312 -15.40625 14.597656 -16.75 13.828125 -18.03125 C 13.066406 -19.320312 12.109375 -20.164062 10.953125 -20.5625 C 9.796875 -20.96875 8.671875 -20.566406 7.578125 -19.359375 C 6.773438 -18.304688 6.242188 -16.90625 5.984375 -15.15625 C 5.734375 -13.414062 5.625 -11.664062 5.65625 -9.90625 C 6.988281 -10.632812 8.320312 -11.25 9.65625 -11.75 C 11 -12.25 12.394531 -12.582031 13.84375 -12.75 C 14.164062 -12.78125 14.414062 -12.914062 14.59375 -13.15625 C 14.78125 -13.394531 14.875 -13.675781 14.875 -14 Z M 14.875 -14 "/></g></g></g><g fill="#000000" fill-opacity="1"><g transform="translate(405.13746, 426.850048)"><g/></g></g><g fill="#000000" fill-opacity="1"><g transform="translate(419.026135, 426.850048)"><g><path d="M 95.453125 -80.578125 C 99.316406 -78.066406 102.128906 -74.921875 103.890625 -71.140625 C 105.648438 -67.367188 106.210938 -63.378906 105.578125 -59.171875 C 104.734375 -54.035156 102.863281 -49.441406 99.96875 -45.390625 C 97.09375 -41.378906 93.785156 -37.789062 90.046875 -34.625 C 86.960938 -31.976562 83.753906 -29.507812 80.421875 -27.21875 C 77.097656 -24.9375 73.6875 -22.773438 70.1875 -20.734375 C 65.632812 -18.046875 61.003906 -15.421875 56.296875 -12.859375 C 54.253906 -11.722656 52.210938 -10.597656 50.171875 -9.484375 C 50.085938 -9.398438 49.988281 -9.320312 49.875 -9.25 C 49.582031 -9.082031 49.300781 -8.960938 49.03125 -8.890625 C 47.863281 -8.484375 47.0625 -7.90625 46.625 -7.15625 C 46.1875 -6.414062 45.957031 -5.554688 45.9375 -4.578125 C 45.914062 -3.609375 45.960938 -2.59375 46.078125 -1.53125 C 46.109375 -1.019531 46.390625 -0.664062 46.921875 -0.46875 C 47.484375 -0.269531 48.066406 -0.101562 48.671875 0.03125 C 51.316406 0.59375 53.960938 1.128906 56.609375 1.640625 C 61.015625 2.566406 65.441406 3.488281 69.890625 4.40625 C 74.796875 5.40625 79.691406 6.4375 84.578125 7.5 C 87.546875 8.132812 90.535156 8.769531 93.546875 9.40625 C 94.378906 9.601562 95.195312 9.769531 96 9.90625 C 96.9375 10.101562 97.859375 10.300781 98.765625 10.5 C 99.460938 10.613281 100.144531 10.816406 100.8125 11.109375 C 101.019531 11.210938 101.195312 11.351562 101.34375 11.53125 C 101.488281 11.71875 101.53125 11.945312 101.46875 12.21875 C 101.4375 12.476562 101.351562 12.632812 101.21875 12.6875 C 101.082031 12.738281 100.929688 12.765625 100.765625 12.765625 C 100.203125 12.804688 99.617188 12.769531 99.015625 12.65625 C 96.492188 12.21875 93.96875 11.800781 91.4375 11.40625 C 87.226562 10.75 83.019531 9.984375 78.8125 9.109375 C 72.03125 7.671875 65.25 6.25 58.46875 4.84375 C 57.019531 4.550781 55.5625 4.25 54.09375 3.9375 C 51.914062 3.445312 49.707031 3.03125 47.46875 2.6875 C 46.5 2.476562 46.015625 2.894531 46.015625 3.9375 C 45.984375 4.644531 45.96875 5.347656 45.96875 6.046875 C 45.96875 6.410156 45.96875 6.765625 45.96875 7.109375 C 45.84375 18.828125 45.722656 30.554688 45.609375 42.296875 C 45.609375 42.429688 45.609375 42.578125 45.609375 42.734375 C 45.609375 43.171875 45.582031 43.609375 45.53125 44.046875 C 45.457031 45.140625 44.851562 45.609375 43.71875 45.453125 C 42.570312 45.285156 41.9375 44.679688 41.8125 43.640625 C 41.738281 43.109375 41.71875 42.585938 41.75 42.078125 C 41.75 41.992188 41.75 41.929688 41.75 41.890625 C 41.71875 35.710938 41.65625 29.632812 41.5625 23.65625 C 41.488281 17.601562 41.453125 11.453125 41.453125 5.203125 C 41.453125 4.921875 41.453125 4.617188 41.453125 4.296875 C 41.421875 3.765625 41.421875 3.242188 41.453125 2.734375 C 41.492188 1.804688 41.078125 1.140625 40.203125 0.734375 C 40.109375 0.703125 40.003906 0.664062 39.890625 0.625 C 39.203125 0.332031 38.539062 -0.0078125 37.90625 -0.40625 C 36.019531 -1.644531 35.582031 -3.148438 36.59375 -4.921875 C 37.332031 -6.160156 38.332031 -7.132812 39.59375 -7.84375 C 40.34375 -8.25 40.847656 -8.773438 41.109375 -9.421875 C 41.378906 -10.066406 41.515625 -10.847656 41.515625 -11.765625 C 41.472656 -21.953125 41.472656 -32.140625 41.515625 -42.328125 C 41.515625 -44.804688 41.515625 -47.296875 41.515625 -49.796875 C 41.515625 -49.898438 41.515625 -50.035156 41.515625 -50.203125 C 41.515625 -51.128906 41.53125 -52.03125 41.5625 -52.90625 C 41.6875 -54.039062 42.4375 -54.507812 43.8125 -54.3125 C 45.125 -54.144531 45.796875 -53.457031 45.828125 -52.25 C 45.828125 -51.519531 45.828125 -50.820312 45.828125 -50.15625 C 45.828125 -49.914062 45.828125 -49.675781 45.828125 -49.4375 C 45.878906 -43.863281 45.90625 -38.304688 45.90625 -32.765625 C 45.90625 -27.273438 45.925781 -21.773438 45.96875 -16.265625 C 45.96875 -16.234375 45.96875 -16.195312 45.96875 -16.15625 C 45.96875 -15.226562 45.984375 -14.328125 46.015625 -13.453125 C 46.085938 -12.578125 46.554688 -12.296875 47.421875 -12.609375 C 47.691406 -12.734375 47.960938 -12.878906 48.234375 -13.046875 C 48.285156 -13.046875 48.3125 -13.046875 48.3125 -13.046875 C 53.269531 -15.691406 58.1875 -18.4375 63.0625 -21.28125 C 67.945312 -24.125 72.691406 -27.164062 77.296875 -30.40625 C 80.472656 -32.613281 83.503906 -34.992188 86.390625 -37.546875 C 89.285156 -40.097656 91.90625 -42.929688 94.25 -46.046875 C 96.820312 -49.378906 98.691406 -53.117188 99.859375 -57.265625 C 100.628906 -59.972656 100.832031 -62.832031 100.46875 -65.84375 C 99.820312 -70.414062 97.675781 -74.289062 94.03125 -77.46875 C 92.300781 -78.945312 90.4375 -80.128906 88.4375 -81.015625 C 81.082031 -84.460938 73.726562 -86.226562 66.375 -86.3125 C 59.019531 -86.394531 51.941406 -85.203125 45.140625 -82.734375 C 38.347656 -80.265625 32.125 -76.90625 26.46875 -72.65625 C 20.820312 -68.40625 15.992188 -63.644531 11.984375 -58.375 C 10.410156 -56.570312 9.039062 -54.613281 7.875 -52.5 C 7.070312 -51.164062 6.359375 -49.796875 5.734375 -48.390625 C 5.117188 -46.992188 4.710938 -45.472656 4.515625 -43.828125 C 4.472656 -43.429688 4.320312 -43.148438 4.0625 -42.984375 C 3.800781 -42.816406 3.488281 -42.765625 3.125 -42.828125 C 2.644531 -42.828125 2.1875 -42.898438 1.75 -43.046875 C 0.820312 -43.367188 0.335938 -44.015625 0.296875 -44.984375 C 0.265625 -46.253906 0.484375 -47.472656 0.953125 -48.640625 C 2.523438 -52.984375 4.796875 -56.859375 7.765625 -60.265625 C 12.335938 -65.628906 17.734375 -70.460938 23.953125 -74.765625 C 30.171875 -79.078125 36.914062 -82.488281 44.1875 -85 C 51.457031 -87.507812 58.984375 -88.734375 66.765625 -88.671875 C 74.554688 -88.617188 82.296875 -86.925781 89.984375 -83.59375 C 91.878906 -82.75 93.703125 -81.742188 95.453125 -80.578125 Z M 95.453125 -80.578125 "/></g></g></g><g fill="#000000" fill-opacity="1"><g transform="translate(504.080681, 426.850048)"><g><path d="M 21 -14.953125 C 21.269531 -15.234375 21.414062 -14.898438 21.4375 -13.953125 C 21.457031 -13.015625 20.601562 -11.703125 18.875 -10.015625 C 17.15625 -8.335938 15.375 -7.539062 13.53125 -7.625 C 13.132812 -7.664062 12.796875 -7.632812 12.515625 -7.53125 C 12.234375 -7.4375 11.988281 -7.207031 11.78125 -6.84375 C 11.582031 -6.507812 11.347656 -6.207031 11.078125 -5.9375 C 11.078125 -5.9375 11.054688 -5.914062 11.015625 -5.875 C 9.890625 -4.675781 8.566406 -3.882812 7.046875 -3.5 C 5.523438 -3.113281 4.078125 -3.226562 2.703125 -3.84375 C 1.335938 -4.46875 0.351562 -5.648438 -0.25 -7.390625 C -0.6875 -8.953125 -0.722656 -10.507812 -0.359375 -12.0625 C -0.046875 -13.425781 0.457031 -14.710938 1.15625 -15.921875 C 1.988281 -17.523438 3.070312 -18.65625 4.40625 -19.3125 C 5.75 -19.976562 7.269531 -20.347656 8.96875 -20.421875 C 11.488281 -20.554688 13.078125 -19.375 13.734375 -16.875 C 14.128906 -15.4375 14.226562 -13.976562 14.03125 -12.5 C 13.976562 -12.164062 13.914062 -11.816406 13.84375 -11.453125 C 13.769531 -11.222656 13.703125 -10.988281 13.640625 -10.75 C 13.566406 -9.945312 13.914062 -9.582031 14.6875 -9.65625 C 16.800781 -10.019531 18.90625 -11.785156 21 -14.953125 Z M 6.125 -5.640625 C 7.414062 -6.234375 8.316406 -7.253906 8.828125 -8.703125 C 6.679688 -10.066406 5.242188 -12.035156 4.515625 -14.609375 C 3.835938 -13.398438 3.425781 -11.992188 3.28125 -10.390625 C 3.132812 -8.785156 3.289062 -7.457031 3.75 -6.40625 C 4.21875 -5.363281 5.007812 -5.109375 6.125 -5.640625 Z M 9.8125 -11.546875 C 10.164062 -12.054688 10.375 -12.679688 10.4375 -13.421875 C 10.5 -14.171875 10.460938 -14.914062 10.328125 -15.65625 C 10.191406 -16.394531 10 -16.972656 9.75 -17.390625 C 9.5 -17.804688 9.238281 -17.9375 8.96875 -17.78125 C 8.476562 -17.34375 8.203125 -16.710938 8.140625 -15.890625 C 8.085938 -15.066406 8.210938 -14.242188 8.515625 -13.421875 C 8.816406 -12.609375 9.25 -11.984375 9.8125 -11.546875 Z M 9.8125 -11.546875 "/></g></g></g><g fill="#000000" fill-opacity="1"><g transform="translate(524.448921, 426.850048)"><g><path d="M 30.875 -13.8125 C 31.507812 -13.769531 31.617188 -13.445312 31.203125 -12.84375 C 30.785156 -12.25 30.070312 -11.488281 29.0625 -10.5625 C 28.0625 -9.644531 26.976562 -8.6875 25.8125 -7.6875 C 24.25 -6.351562 22.984375 -5.203125 22.015625 -4.234375 C 20.941406 -3.328125 20.070312 -2.0625 19.40625 -0.4375 C 18.738281 1.1875 18.40625 2.679688 18.40625 4.046875 C 18.40625 4.773438 18.40625 5.640625 18.40625 6.640625 C 18.4375 8.679688 18.429688 11.140625 18.390625 14.015625 C 18.359375 16.890625 18.203125 19.859375 17.921875 22.921875 C 17.640625 25.984375 17.128906 28.859375 16.390625 31.546875 C 15.648438 34.234375 14.597656 36.425781 13.234375 38.125 C 11.867188 39.832031 10.128906 40.769531 8.015625 40.9375 C 3.953125 41.039062 1.160156 39.351562 -0.359375 35.875 C -1.523438 32.9375 -1.914062 29.925781 -1.53125 26.84375 C -1.144531 23.769531 -0.285156 20.765625 1.046875 17.828125 C 2.390625 14.890625 3.90625 12.191406 5.59375 9.734375 C 7.28125 7.273438 8.863281 5.210938 10.34375 3.546875 C 11.832031 1.878906 12.894531 0.757812 13.53125 0.1875 C 13.8125 -0.71875 13.972656 -1.769531 14.015625 -2.96875 C 14.054688 -4.175781 14.0625 -5.347656 14.03125 -6.484375 C 13.976562 -6.847656 13.953125 -7.164062 13.953125 -7.4375 C 13.148438 -6.195312 12.316406 -5.328125 11.453125 -4.828125 C 10.597656 -4.328125 9.738281 -4.050781 8.875 -4 C 8.007812 -3.957031 7.191406 -3.984375 6.421875 -4.078125 C 6.347656 -4.078125 6.273438 -4.078125 6.203125 -4.078125 C 4.441406 -4.316406 3.050781 -5.144531 2.03125 -6.5625 C 1.007812 -7.988281 0.347656 -9.613281 0.046875 -11.4375 C -0.253906 -13.257812 -0.179688 -14.894531 0.265625 -16.34375 C 0.722656 -17.789062 1.554688 -18.632812 2.765625 -18.875 C 3.253906 -19 3.800781 -19.0625 4.40625 -19.0625 C 5.007812 -19.0625 5.507812 -18.976562 5.90625 -18.8125 C 6.3125 -18.644531 6.445312 -18.34375 6.3125 -17.90625 C 5.945312 -16.414062 5.738281 -14.800781 5.6875 -13.0625 C 5.632812 -11.320312 5.785156 -9.804688 6.140625 -8.515625 C 6.492188 -7.234375 7.128906 -6.539062 8.046875 -6.4375 C 8.972656 -6.34375 10.203125 -7.175781 11.734375 -8.9375 C 12.460938 -9.875 12.960938 -10.828125 13.234375 -11.796875 C 13.503906 -12.773438 13.722656 -13.828125 13.890625 -14.953125 C 13.929688 -15.359375 13.992188 -15.757812 14.078125 -16.15625 C 14.117188 -16.5625 14.175781 -16.960938 14.25 -17.359375 C 14.300781 -17.890625 14.363281 -18.410156 14.4375 -18.921875 C 14.632812 -19.765625 15.101562 -20.347656 15.84375 -20.671875 C 16.582031 -21.003906 17.378906 -20.96875 18.234375 -20.5625 C 18.671875 -20.3125 18.925781 -19.945312 19 -19.46875 C 19.09375 -18.539062 19.140625 -17.617188 19.140625 -16.703125 C 19.085938 -13.460938 19.0625 -9.472656 19.0625 -4.734375 C 19.113281 -4.765625 19.515625 -5.101562 20.265625 -5.75 C 21.234375 -6.632812 22.457031 -7.695312 23.9375 -8.9375 C 25.425781 -10.175781 26.832031 -11.285156 28.15625 -12.265625 C 29.476562 -13.253906 30.382812 -13.769531 30.875 -13.8125 Z M 13.046875 13.96875 C 13.046875 13.53125 13.070312 13.078125 13.125 12.609375 C 13.164062 10.878906 13.222656 9.128906 13.296875 7.359375 C 13.296875 7.285156 13.265625 7.1875 13.203125 7.0625 C 13.148438 6.945312 13.078125 6.863281 12.984375 6.8125 C 12.785156 6.664062 12.617188 6.640625 12.484375 6.734375 C 12.347656 6.835938 12.21875 6.945312 12.09375 7.0625 C 10.414062 9.226562 8.832031 11.679688 7.34375 14.421875 C 5.851562 17.171875 4.6875 20.03125 3.84375 23 C 3.007812 25.96875 2.664062 28.875 2.8125 31.71875 C 2.945312 33.488281 3.515625 35.113281 4.515625 36.59375 C 5.710938 38.25 6.765625 38.84375 7.671875 38.375 C 8.578125 37.914062 9.335938 36.773438 9.953125 34.953125 C 10.578125 33.128906 11.085938 30.976562 11.484375 28.5 C 11.890625 26.03125 12.203125 23.613281 12.421875 21.25 C 12.640625 18.894531 12.8125 16.9375 12.9375 15.375 C 12.96875 14.84375 13.003906 14.375 13.046875 13.96875 Z M 13.046875 13.96875 "/></g></g></g></svg>