<svg width="48" height="72" viewBox="0 0 48 72" fill="none" xmlns="http://www.w3.org/2000/svg">
<mask id="path-1-inside-1_1_2416" fill="white">
<path d="M0 0H48V72H0V0Z"/>
</mask>
<path d="M0 72H-0.375036V72.375H0V72ZM-0.375036 0V1.5H0.375036V0H-0.375036ZM-0.375036 4.5V7.5H0.375036V4.5H-0.375036ZM-0.375036 10.5V13.5H0.375036V10.5H-0.375036ZM-0.375036 16.5V19.5H0.375036V16.5H-0.375036ZM-0.375036 22.5V25.5H0.375036V22.5H-0.375036ZM-0.375036 28.5V31.5H0.375036V28.5H-0.375036ZM-0.375036 34.5V37.5H0.375036V34.5H-0.375036ZM-0.375036 40.5V43.5H0.375036V40.5H-0.375036ZM-0.375036 46.5V49.5H0.375036V46.5H-0.375036ZM-0.375036 52.5V55.5H0.375036V52.5H-0.375036ZM-0.375036 58.5V61.5H0.375036V58.5H-0.375036ZM-0.375036 64.5V67.5H0.375036V64.5H-0.375036ZM-0.375036 70.5V72H0.375036V70.5H-0.375036ZM0 72.375H1.5V71.625H0V72.375ZM4.5 72.375H7.5V71.625H4.5V72.375ZM10.5 72.375H13.5V71.625H10.5V72.375ZM16.5 72.375H19.5V71.625H16.5V72.375ZM22.5 72.375H25.5V71.625H22.5V72.375ZM28.5 72.375H31.5V71.625H28.5V72.375ZM34.5 72.375H37.5V71.625H34.5V72.375ZM40.5 72.375H43.5V71.625H40.5V72.375ZM46.5 72.375H48V71.625H46.5V72.375ZM0 72H-0.750071V72.7501H0V72ZM-0.750071 0V1.5H0.750071V0H-0.750071ZM-0.750071 4.5V7.5H0.750071V4.5H-0.750071ZM-0.750071 10.5V13.5H0.750071V10.5H-0.750071ZM-0.750071 16.5V19.5H0.750071V16.5H-0.750071ZM-0.750071 22.5V25.5H0.750071V22.5H-0.750071ZM-0.750071 28.5V31.5H0.750071V28.5H-0.750071ZM-0.750071 34.5V37.5H0.750071V34.5H-0.750071ZM-0.750071 40.5V43.5H0.750071V40.5H-0.750071ZM-0.750071 46.5V49.5H0.750071V46.5H-0.750071ZM-0.750071 52.5V55.5H0.750071V52.5H-0.750071ZM-0.750071 58.5V61.5H0.750071V58.5H-0.750071ZM-0.750071 64.5V67.5H0.750071V64.5H-0.750071ZM-0.750071 70.5V72H0.750071V70.5H-0.750071ZM0 72.7501H1.5V71.2499H0V72.7501ZM4.5 72.7501H7.5V71.2499H4.5V72.7501ZM10.5 72.7501H13.5V71.2499H10.5V72.7501ZM16.5 72.7501H19.5V71.2499H16.5V72.7501ZM22.5 72.7501H25.5V71.2499H22.5V72.7501ZM28.5 72.7501H31.5V71.2499H28.5V72.7501ZM34.5 72.7501H37.5V71.2499H34.5V72.7501ZM40.5 72.7501H43.5V71.2499H40.5V72.7501ZM46.5 72.7501H48V71.2499H46.5V72.7501Z" fill="#00AAFF" fill-opacity="0.2" mask="url(#path-1-inside-1_1_2416)"/>
</svg>
